<svg viewBox="-102.4 -102.4 1228.80 1228.80" class="icon" version="1.1" xmlns="http://www.w3.org/2000/svg" fill="#000000"><g id="SVGRepo_bgCarrier" stroke-width="0"><path transform="translate(-102.4, -102.4), scale(38.4)" d="M16,29.098582415117157C17.812555771540442,28.415230242793918,18.992261670943794,26.672841630822433,20.77603282649317,25.917534354944927C22.674163245544445,25.11380361201098,25.60854085010905,26.286187988461688,26.728573716771137,24.555752039788167C27.903203121396555,22.740965162872318,25.098264396535587,20.286175753552172,25.754199712238712,18.226332432216765C26.501689945521253,15.878977856346737,30.73791504110811,15.141456185047097,30.507491911488003,12.688759641434983C30.293612992477826,10.41216489909023,26.701771271654163,10.300263068672788,24.87976940881819,8.918620197055459C23.50158708979031,7.87353027935907,22.393678203798554,6.60369456356128,21.0487728775055,5.516115093425748C19.393574326224115,4.1776119823305855,18.037418043788183,2.35445491083291,16,1.7378508746623993C13.811211191025519,1.0754360020478604,11.346726688831556,1.0770331134252495,9.228496210802113,1.9388274947599307C7.084144048714032,2.811249388438629,4.63913330841445,4.291549790427695,4.157506329018988,6.555926439384347C3.613608584068216,9.11307005005292,6.7961596558853365,11.262807879949715,6.689706518596349,13.874986268212464C6.6100125651972315,15.830539932913428,4.082618716136212,16.906495306372506,3.6578345817293254,18.817018716564053C3.1683428729156313,21.01857308979647,3.143415606169237,23.44465846635893,4.108811532244131,25.48290636522063C5.1134112778967555,27.603925592118223,6.859592521904854,29.634894921625488,9.104988958276135,30.317637957742114C11.366374790988102,31.005242785222833,13.788345360966257,29.93239896616763,16,29.098582415117157" fill="#c97c5d" strokewidth="0"></path></g><g id="SVGRepo_tracerCarrier" stroke-linecap="round" stroke-linejoin="round"></g><g id="SVGRepo_iconCarrier"><path d="M515.2 200c70.4-28.8 129.6-33.6 211.2-8 60.8 19.2 91.2 44.8 120 97.6 6.4 11.2 30.4 59.2 33.6 67.2 28.8 57.6 24 100.8-3.2 169.6-12.8 32-14.4 35.2-17.6 46.4-14.4 52.8-67.2 99.2-120 124.8-4.8 3.2-9.6 4.8-17.6 9.6-3.2 1.6-3.2 1.6-4.8 3.2-35.2 17.6-56 25.6-89.6 27.2-64 4.8-216-80-256-153.6-40-75.2-33.6-225.6 8-273.6 36.8-48 88-91.2 136-110.4z m11.2 30.4c-41.6 17.6-89.6 56-126.4 100.8-32 36.8-38.4 174.4-3.2 238.4 33.6 62.4 172.8 140.8 225.6 136 28.8-1.6 46.4-8 78.4-24 3.2-1.6 3.2-1.6 4.8-3.2 8-4.8 12.8-6.4 19.2-9.6 46.4-20.8 92.8-62.4 104-104 3.2-12.8 4.8-17.6 19.2-51.2 25.6-60.8 28.8-96 4.8-142.4-4.8-9.6-27.2-56-33.6-67.2-25.6-46.4-48-65.6-100.8-83.2-76.8-20.8-128-16-192 9.6z" fill="#fff1d6"></path><path d="M612.8 464m-112 0a112 112 0 1 0 224 0 112 112 0 1 0-224 0Z" fill="#fffcf5"></path><path d="M382.4 587.2l3.2 16c-9.6 1.6-20.8 4.8-32 9.6-22.4 9.6-49.6 30.4-70.4 56-17.6 20.8-20.8 94.4-1.6 129.6 17.6 33.6 96 76.8 124.8 75.2 16-1.6 25.6-4.8 43.2-12.8 1.6 0 1.6 0 3.2-1.6 4.8-1.6 8-3.2 9.6-4.8 25.6-11.2 51.2-33.6 57.6-56 1.6-8 3.2-9.6 9.6-27.2 9.6-22.4 12.8-35.2 11.2-51.2l16-1.6c1.6 19.2-1.6 33.6-12.8 59.2-6.4 17.6-8 19.2-9.6 25.6-8 28.8-36.8 54.4-65.6 67.2-3.2 1.6-4.8 3.2-9.6 4.8-1.6 0-1.6 0-3.2 1.6-19.2 9.6-30.4 14.4-49.6 14.4-35.2 3.2-118.4-43.2-139.2-83.2-22.4-40-17.6-121.6 3.2-148.8 22.4-27.2 49.6-49.6 76.8-59.2 12.8-8 24-11.2 35.2-12.8z" fill="#fff1d6"></path><path d="M404.8 736m-48 0a48 48 0 1 0 96 0 48 48 0 1 0-96 0Z" fill="#fffcf5"></path><path d="M185.6 144c24-9.6 44.8-11.2 72-3.2 20.8 6.4 32 16 41.6 33.6l11.2 22.4c9.6 20.8 8 35.2-1.6 59.2-3.2 11.2-4.8 12.8-4.8 16-4.8 17.6-24 35.2-41.6 43.2-1.6 0-3.2 1.6-6.4 3.2-1.6 0-1.6 0-1.6 1.6-12.8 6.4-19.2 8-30.4 9.6-22.4 1.6-75.2-27.2-88-52.8-14.4-25.6-11.2-76.8 3.2-94.4 12.8-17.6 28.8-32 46.4-38.4z m4.8 16c-12.8 4.8-28.8 17.6-41.6 33.6-9.6 11.2-11.2 56-1.6 76.8 11.2 19.2 56 44.8 73.6 43.2 9.6 0 14.4-3.2 25.6-8 1.6 0 1.6 0 1.6-1.6 3.2-1.6 4.8-1.6 6.4-3.2 14.4-6.4 30.4-20.8 33.6-32 1.6-4.8 1.6-6.4 6.4-17.6 8-19.2 9.6-30.4 1.6-44.8l-11.2-22.4c-8-14.4-14.4-20.8-32-25.6-24-8-41.6-8-62.4 1.6z" fill="#fff1d6"></path><path d="M228.8 232m-24 0a24 24 0 1 0 48 0 24 24 0 1 0-48 0Z" fill="#fffcf5"></path></g></svg>